<mxfile host="65bd71144e">
    <diagram id="nz9SelQOFqfK55uVO44w" name="Page-1">
        <mxGraphModel dx="378" dy="192" grid="1" gridSize="10" guides="1" tooltips="1" connect="1" arrows="1" fold="1" page="1" pageScale="1" pageWidth="850" pageHeight="1100" math="0" shadow="0">
            <root>
                <mxCell id="0"/>
                <mxCell id="1" parent="0"/>
                <mxCell id="6" value="&lt;font style=&quot;font-size: 40px;&quot;&gt;RADAR&lt;/font&gt;" style="text;strokeColor=none;align=center;fillColor=none;html=1;verticalAlign=middle;whiteSpace=wrap;rounded=0;strokeWidth=1;" vertex="1" parent="1">
                    <mxGeometry x="150" y="160" width="320" height="30" as="geometry"/>
                </mxCell>
                <mxCell id="7" value="" style="shape=stencil(lVhJcttADHyNrqjBYDDL2Un+4SrLsSqO5ZKd7fcBoxpagKR2fJNINAdLowFyIzcvD7fP201OL6+H/bftr93d68NGPm1y3j09bA+7V/u1kc8bubnfH7ZfD/sfT3fH/8+3i+Xy6/v+5/KE30dcEcp1QeX053glN0ry78qXI+Bx93QCkEo1O4Bd0XIdkAf14gClUmoAINTFAbSQAABXGs0BqpJ0CGjepaakKGimpB7QqQOXClMeDtAT5XwdoELsY+hMDABVqPUIKCBo8zgA2qABCtczdV/plogZnKDE9awOAFCtrr4OlamBtBoR2KdVG+kAdTCq+aCLAXDhuo9BCmWQJWnEnq1cJh2vNVBjD+D3TghZshAU2HcaPgSLABDDQi7JO0QN5bRE+0QCmGoZrxrsE4hXE3UO9iih1jrqny+UUKvpZMBKopmwy/ameJ5DgzRB+6AuvIrsNYead8gEqoMKW8TdR8wmsqBkyrFvcoYaXPq8vQJMoIBLRopQtKUKQFKNdS0MHp6NcZnWY3bJSdCCRLvNMp2kFcWwdGZo5UwFpNVOSF4hTWNxZ4q3N30ETCqJNCSVFHWakPicJqpYHTXaJ+TPmMLwZo/GpmZqKfgPh6App3++XcCdVmL+kdJ91N6mUcinAVCCbKCFcWMlZ1CBJjPANWJTY9CYvUxGnmxTiNRDIqlNPQS4NMZcI9ahbE6CEzitrFkHVKMCeDFqVOxuMwIA7Hb2AHtEBYVoZ7uLhVVRqWV21tr7CTeDkbueHYH2KROwdgbowCcjW2j/0eGk4hb1ZTQo823Kw2qfZ4dctD8rtG21BYRs9j6AqnC/k5ghG43In0WfQ/vI7MDLgB4BopRBlU2h2btkVzoACEeNtKmDlmCROGptgUS0sIW0hgVS4LogqwOnCwkqg6nciABGLp294xlA39k5NQZd0H6R40shK5y15UxZl+5ALp2ndcAslRJPyOtb3zVAXHlkrvbXADnMf8UnfPRt/j8A9uPt48H97vHx+O3h9H782GCXjh8q5PNf);lineShape=1;strokeColor=default;" vertex="1" parent="1">
                    <mxGeometry x="247.72047756467202" y="197.0405924155869" width="13.341508377400466" height="11.557712798854812" as="geometry"/>
                </mxCell>
                <mxCell id="8" value="" style="shape=stencil(lVbLctswDPwaXXdIgg/wnKb/kZk4taaunXHc198XqivXQBzIutE0VwQWiwUHenjbPr1uhhTeTsfD183P8fm0HejTkNK4326O40lWAz0O9PByOG6+HA/f98/n369P08lp9e3wY/rCrzOuB7Q+oVL4/W8HMf7d+Hw+vxv31+cjalPnI6N6AEJlBSACsQMooKoAuaEUB1DRkwKUjpAdAIN1SC2g08eAGAJCUAhmtOZc0eYcL7SmOa2bAO5gfYPwUJwbGiNomiSt4PBahXZdud7dygntSUvjioebCIrI3V6RkkNsQyUNEOKc0jVEk3R2WYqIJmfZcUgKNmX2tZdRtfQ4u9KLhGaEFBEc6aWKoiOSwrNDaY62G5qQ7CivMGJYA2iETO9CcnLgCoprkp4sgNfQKjJr5oYFz7hEfC2M7gASOK9RHidrYwvSroxiHMBvnpJQV/ZnnRv+TguQ/umGJt9kYphZvNPG0ruIhDencDeN2BHrWuMWFZju8UcDzXTcOXvEMLSMFoabtI6OZ2F6MkgXbGk8Ixn+3fEv9SVd38vw/cjvzKjNYCfd2JG1YdOSPZo+jiiOHEjUqPkPKM73c7H19TusZOu+/vmabb5+POK9ZqD5+XKw+fp8ilUb/fv14m7719fD6ufm4nlZ/H/bvoy73flpfP2/fQvL1vkdTY9/AA==);lineShape=1;strokeColor=default;" vertex="1" parent="1">
                    <mxGeometry x="282.39804507600684" y="197.08800938440766" width="2.4766426693641237" height="11.00624762842916" as="geometry"/>
                </mxCell>
                <mxCell id="9" value="" style="shape=stencil(7VjLctswDPwaXzEkwQd4TtP/yEyc2lM3zjjp6+8L1UNVBKVNM+0xN0fBSnjtAuSOb54Pd0/7XXDPL5fz5/334/3LYccfdiEcHw/7y/FFf+34dsc3D+fL/tPl/PXx/vr3091kOf36cv42veHHFZdJ/AQK7uf1gacYfz/4eDU/HR8X5r4Sl87ekXPb9iyUs7EvwD4Kud4+UpZt+5Ta62b/PaW8DciemDuARlwCADBJD+BIHoSQA0nqQygkFcRQmwMNoE464FLK5HtA8ZQTAAQK0gFEywYAMVPsY5BKFQA4UezrUDOsQ2AKBiDEoNK+NI8XgALS6rVzvAWgLHnNUrUAD+rgHYW+NWqhANgjlKJNkgNJKrZXq8YE3p8t2SqTK8g+9W1Rlf2M/HGmjSoJjNf38Yo0+Vi1r5bMUsh7UABt+16NRKkBAvBMtc+oJEqAzD4TJwsIoIk0Bt/XQGL75jrVHFWxgAKCTtoDwQJQ1XK1VFNAAEHLIMIKQH2qbSNDDBGQuSZiZ9OaAZmVWNW4VKC+1Gp7e1IwVGk3T7KZDYEi/oTvu0/pWVHUZQDoExS11qkvtSqSIJccZaMYtQ349VJnKtkCkNCLKsrwhYA0rNr5qUELUNVSKBoZTs3JdUBujFzIHqMvjADdSoCOjS5NQgaaaQxaMpSNKa1GKiMJ4qgWrlgA0sqxNSYVAC5NzTdoZUBfGNpbnRQk9wOBlKMO7QArHNURANI0yoCG5ZFPpbX/cpFBUaeVrQEtMpNYGhWYndyU496lRR7+UsBfQ4wzYhIOQLpxCikgv2nOKYBfmaTJAuBwLzbq9w3xP2yIplffN8R/3BC91jgMANCmrMwx0ye209Y6IFsNK3PdN7nZA1QP0ASNkbh3SQ+xGdRhOlD2adVDMXQpW+boEROtDZGpmIN9gsdungVuFklpp951AA+AANkfBqVXPRA0Guxeoh9AFwHKfj/YI9Gm2Hee0gMJJLe7l4V9AOQJbZtdxBsRO+3SUyH5nVVfVQ+QzWFXyPAA4OwyktqE2zCX/u2Yk95eCnGr3UbmQ99qAcqunjv6ROK6vvHS71Vz/fHnfvHheDpdryeX/7f3kfroepfJt78A);lineShape=1;strokeColor=default;" vertex="1" parent="1">
                    <mxGeometry x="309.3154445275395" y="197.36396693671088" width="10.792587909797826" height="16.199577821824857" as="geometry"/>
                </mxCell>
                <mxCell id="10" value="" style="shape=stencil(7VnJchQxDP2auaosy+uZ5T+oIpApQkKFsP09rxncjOWZl+LCidukI7W1vie5D/bi8+2bTzeHGD4/PT58uPl2fPt0e7CXhxiP97c3j8cn/DrYq4O9ePfwePP+8eHL/dvT35/ebJLbr48PX7c3fD/pJWl5U4rhx+lBlhx/PXh9Er873p+Ja5Gmk7xJJPKxSJjfr5L0uryZ5Fk+jBdclE9RSvPy4bp8jmLB29Ouy5fo7UkS0nX5amI2yVdpJD4tLvFR0UoUmuQ5AWrSiULPUp1CG08uK9SR0aGAJEamAAPmmFqQSpIAH1wSLFOna5c0R8n6OPNy2rqEOqcNRpK8ZZjkFKpYIYVXRWcfchAjlWpF6nwCarF20jpV+lzaOUkltYrSb2VWKGLkBJTa71reFZooOQEWFS8fSd6Kz/MWZlJJyTcz5AOxx4a1u3yVQt6vvlARoE66M0hXL8/QKEh08ckULXas2uVtRPiKvLp8RWkkPkGKKzmVRuxRyc7+QOODAl7kWR8nibO/qUsx0pWjQc7kjcgrDpjRd2tTUhCooOAUMm0Zi6LOJKSMtX0fEd8VIs0BXExzUSeULQtS81UHhUxMKnUBRxVjpJalRO9DJSY1kGT0eWCN3FGpc1hR2YmxWhqkd9b6rBV6806D2hkNali6swC92BHdwyMCF0mYwLR9prXGKQFMqzMgIXBs/Gr7tLUrlNGzl1O9zDsIHOPBYlLnVCMMxiYw9Gj3CoVUHzoouAEm8CEPVJuSP6KyI5Jo9F4zILZljEQuWUeYeqpCIpQBzULmKPnEFHQA164Qx6x+zYfqfFCKroiSo5Ot+lgeFqBpnSITUl0WhURMSgscQ6ExBkp+zoMPLErgAwc0CKuywbB4wEfXsrFtU3AnZJppKLiwoviUoACczkt5Z5I4hNVctXa6Jm0styjQBsKSsSg0Vt7LogqFyEyKSx74cIsGSi6shfd0WJzGuMec1gVmjO8MS3mjRRlBmHlGQXln5gNWuzlKaCBGi9akBa9AN/q/VcgLyUGBQWUJfrNqfMMFj6tTqGPzuMyKiJIj6kJZEbzrBqCGCYetxHFw4D47oGmJSduk4OYZPp1gh3aEUjg/1L2Yz7af+sxc6RSUDhu5eZiBQibojfWiZK+Q+PVQTV6hMcrKHgSe39J13iAw4LAdaLt9cUtfpvP9xaWbTWT/l+7/S/e/XLqjv0WCghKHtytUdwKaiNNgWbd0VtJx/PtsYWVbOlLqkrBdMDIKiZ7KwaSZoWnwPmwDCgGWWj0SxU6ni7ZwP0qlEKcB8G3OA7CJdQ4A3pWGJjptb9eJy+02uxne5vkZXBqtDITEjy+UojawmLOgYSwEl4MqaU4zqr3TG1K/qxrdFvLgu3N5FiDfzLCHfV+IfnuBPLvqUU82SFhhbDa+DJzFs1EwrW5kfgZ73bVQH3PVNepwY9pAmmvI67/VsOua6Guh8IVcsuMNiih/+SHuWXH8+PPN793x7u70yfD8//4bIR6dvi/aq58=);lineShape=1;strokeColor=default;" vertex="1" parent="1">
                    <mxGeometry x="334.25189312026737" y="196.65387235062667" width="15.391200680797137" height="23.39783225694129" as="geometry"/>
                </mxCell>
                <mxCell id="11" value="" style="shape=stencil(7VnLbhsxDPyavRIiqec5Tf8jQJzGaBoHTvr6+3JryGtxvVPkWCA3e81ZiY8ZUvKkN6+Pdy+7ScLr2/Hwdfdzf//2OOmnSWT//Lg77t/s06S3k948HI67L8fD9+f70/eXu9ly/vTt8GN+w68TrlEMM0jC79MDoZr+Pvh8Mn/aP1+Ys1CWwZ4DNQGARMIjoJAiQPMASZTBlkSp1hHQSMM2QJUkDQB7kts2IDLx6LRmChEACknwAC7bgMRU3ApCClZImUrxUVIQpRxIRgBXmLgsJHEECCXgQ2bKOgAKBcX2ebBPlJAHQmH0IBKj91sljw7YA2SvPR5nh6mg/SRfRsYE9H5LWXb2EdnXntDFXiqwb9Sifz+wL0zR+4vyVcTXKFMFrCnq/VUKDOxj3+6SX0X7iT6/qS+4Zd+cEnF/ch1QKDqOWQmCiigmXSMDjAIJhKgyiaO9whWq9pCcAZUqIGVNVMckRNMJEKVaSRwrBfrQAvEY1tQoAWFp7LdkzBCgdU0pjom2UkRMaNkz2QKNpIVDoDAKdrNqRF43quMStiiDuBrAqVcrsOnYz3VMdcOCbRtw1WdrFlDfs4tO4Zc4XEdY94+rJVDqTFJk5QSq1+ZFw+KAWG312qpPhCAKVd85LQ4JVJNtiUcdtjA05HRYpdrKD4XVlNitEPpYtsUIHlO9xG0r1S15QEYAa1bBbymgcq1eypbcbxHCSZmFFU0wBmgOoLDhtlVDbDZJIkLYllwtlT6MbjrdfHkjoZnD6gANl0bqg+YFoKHE6RUVQG16rs0VAKpr8MU3hwFEaSbQiqIFMW5N0UQMGPd+wEpc7RVoGKvRF1/BYbVOzeOWbP5A47O1qDwyzgbADHywDeRxhXlCxvOM61kp9XK8Dki+lqKlEgHEOx1teAA+2Mxax+HBDkoV+JBtJnNDJXe13ZzSV8dJBoyzY4COFLUTKZzT2fvA5xPpx0Fp+jgo/XcHJTshODXtg+Lm+0fl4gQvYCxA2XGSO+m2MpbcFU/pPeU6IK5kAh97Uu0hP8cUn8RS6DVwBmTIgsh+SwZAZadxJaaxt7nrF2HV152pLxryjOeu8GKA91pc/G2hyTUa51n8RKV4dq5efOdrLdRAPPWNy/Duz7dxjhRAEuxtY1nkfhjYMHfHHdxrVqfOCEfm1RWewFEwrGhJDZCM+3iymKMrS/FjY4CdXn3PC3BAi35OxgfT1ANx8XYQyOIbZICH/dqV4EL/obmTW4s7GvHfdwP/T3P7sFz2P+yfnk7/FVz+7v8csEenPxb09g8=);lineShape=1;strokeColor=default;" vertex="1" parent="1">
                    <mxGeometry x="362.6710572028762" y="197.1200054575723" width="19.877690497867206" height="21.566371234292877" as="geometry"/>
                </mxCell>
                <mxCell id="12" value="" style="shape=stencil(lVbLctswDPwaXTEEQBLkOU3/IzNxak1dO+O4r78vVI1ag5Yh8yaJWOHBxQIDP33sX953A4WPy/n0dfdzfL3sB/40EI3H/e48XvRp4OeBn95O592X8+n78XV+f3+ZLKenb6cf0x9+zbgaoKYJReH3/AUDEP798nkGHMbjNYAgkAVUKNkBRKjRADhBKA5AIKIBJAKsDqCAVAPIERLfB2AIEIJBFHXqJSHAxQAqQpT7gKJFsR6qZu14kLIc/wMIlHQfkBlYLKBCcjxEAbJluqrDKoI1x9q6QK+wApnbJIIDEMAmaYbqOQBscg7LH1btQ5tyyYBOxhGyJXdR6jlcRQax16z3WOg+gDIkG5FkYO/WEKoNSXwipbJk+CBAGCL3hKQ1ZOxJWqnfdM9GWZVmYj1s3JtKQGmI5xNDZaxYVZqYF52kaanJg9TOBVKjAH7zqMrlzv7MkLF14UmA9k+96U9PZHQYYKMAPpnoJiJ0hXVViJ2AeoUbl2H24Gigtj03Zk9qVXtjuAlU2wlb0xNC13ieji2vBcS7YBUwa58WNVi3r8A2IB1DTn1U75r/oxuPli/aAoXlRtblUcstjb3XMulmG/HtJ7pQRzwqpiQd+ZYAOXfUU3WQrL1/X7qHiLX3+dC/D24D9OH/+vk2Hg7z9np93q6r+mledfn5Dw==);lineShape=1;strokeColor=default;" vertex="1" parent="1">
                    <mxGeometry x="254.7744491366699" y="144.00351319701406" width="2.4510628861061043" height="9.756230117167721" as="geometry"/>
                </mxCell>
                <mxCell id="13" value="" style="shape=stencil(fZbdcgIhDIWfZm8zQAg/17Z9j85U606tdqz9e/tmZ0c0uJ47xP0I5JwEBl59bp8/1kNwn6fj4W39M76ctgM/DCGM++36OJ50NPDjwKvN4bh+PR6+9i/z74/n6ctp9H74nlb4nbmSKZeJCu5vngmZ6jzzNAO7cX8FVKEsBuBKrgKg9oAE8gkCbLeUhEoEQKSUDZDLeWYRKIl8MEDRmHwfyBrBG6Amyu4+kDxxMoB3jhwgYu7TVAsVkFcWCs4CTBEoF4RctKeOxHIf8IXYpikHikAIf+MNUW94AGSSaoAoFIE3AlOyeWU+p2E5S9yfQZcQILVuQOwZdJNoS9Ls3wA5u2XZTIHECqeJ9kDpSaauRiNVcAY1QhdBzeLBli5WazpkSsBLV25uRaqWRyFawTQzRRIQYirJzq5atkBqLfouwqUxLBepthWb10vrWZY6UOAeyKCCtDV625mm9gmUC4Wc3VLJMMIE1BsA2FW9JraVlQB7n3c9oMKhCLEvIM1zBPZ25/umNQ1tVEC2G+fFCC8g398O2hNQuQlVu752DBfA+q0ptnqO5JFmeuIuo9DY7KjY71UxdJV4EntifPWorW++R/dC4t7V3DlIB5cHx2bc7eb3yvX//QNFp+bHDT/+Aw==);lineShape=1;strokeColor=default;" vertex="1" parent="1">
                    <mxGeometry x="255.39450268674318" y="134.21605250467132" width="2.1238817145979283" height="2.1205619165262264" as="geometry"/>
                </mxCell>
                <mxCell id="14" value="" style="shape=stencil(lVbLctswDPwaXTEkSILkOU3/IzNxak9dO+O4bfL3haqhK1DVWrnJMlbkLhaPITy87Z9edwO7t+vl/H33+/B83Q/hy8B8OO13l8NVn4bwOISHl/Nl9+1y/nl6nn6/Po2R49OP86/xC+8TrpD3I4jdx/SCM8X8983XKf54OM3ivVBKFiCU0zogOEpsAYl8WQfERNydEMn5dUASYmcBTDmuAyRTKgagrBhwKIVyMAAlBQ6onop08RHFRyrRxEeKFcRnClYiz8Qga7WS516iigHVShQSRYGAnkLBnFVTmzW5I6qQVAPICgC+UFWdJZ0zMZLVNU0aoDho1ZKp2DzkQgUBEjlLOgfIoaiTbX1KJEFW9cTWqikQMwC4Pg9RzYqu5Jsms5aREGkmsXnQcnOIQ2wi3lTC8bkXyVNyMM/FXsi1tPw/PlCxzuOm2ZpTu/5SKSCjFhKbM6/1CgiPxWYJBw+N6p3rjRfjvSO6LGubhaR1bthaGNssAsS+2nLCHYPbGLgBKglg/WmANpRgjVFxI16OnpnSG6dbvQ2XjfNTlU4gc8sJXRNVQGKxAmg8GiZCXnqRUFuNzfy3eE8BxHPf54vAcX772qxrC1DUtQVn1oPRfRalI6lZfVt80rEDXLe4T6xtvG/jG7llcJueAfthkS9tLug+Cz+oo5A+n10578frw7/99uVwPE7r8fz/fh/WV9MuHR7/AA==);lineShape=1;strokeColor=default;" vertex="1" parent="1">
                    <mxGeometry x="364.08626852115515" y="142.07718226772528" width="12.385546274036972" height="2.9850702735862713" as="geometry"/>
                </mxCell>
                <mxCell id="15" value="" style="shape=stencil(lVfLbhsxDPyavRISqRfPafofAeLURl07cJw+/r7cGnJXXHuC3Na7HEsccobSJA9v26fXzcTh7Xw6ft/82j2ft5N8mZh3h+3mtDvb0ySPkzy8HE+bb6fj++H58vv1aY6cn34cf87/8PuC00xJZxSHP5c3mST9e/H1Er/fHZbxlYIM8TFRjQDQKPMA4EgtAICSjgBhanIfEEOgEAZEClQKWKJQymPSgTQDAJM4liopWKE1Sm0AFKMJAYRqGgA1UgVbqoXauKVmAEBTUaojS7bJqvcBuVGIA0ATCdhSyqQOYCy1+4C5sCNgUcubiECx+RwiWMHiyxifYWdEKo4jIa4g5U7IogiMykxxVE9VakBukSknD4igBrFSZA9gwJClLI7SQAxKYDmvG68xANRO4YJUBaQaSx5ggsUrtFVrK9CCmZyOALW6oRW4q/cKEAqoDqatsQ4mHkaVts8rtUETo9JWCwBWrfHFZxBRnSmVFUVQas7nm34gZWfaVuQM49VJOVEAhArJyOfcpoCf0s1wqQNUsOgn4aw04KfRKhA9AGl5pmjtFmDWWs5NfM6MAIWKK5pgQOs9szDUDJL+POD6eQEIQJrSuoMuckhICKEPpWUdQOdlY2l0+cp9vN9upewLV0If77cBzftRFjgXavJ+lBh6aq1+8ojJH9TBzhdOb+YIigC5y+s6zDMUnOXgHKB0C7kbP+7IaEYbSv5IJfCkagno2HlXC7xHqatBpIT+X/tM6vGhq+/2WYH9ZLbTDOgJ80OtLh4ZcKuUs4tHg9/83HUEbmo7NAfXEJRBP9g8cnwyHoBpdVEgRfv57FXnw3h7+H+vetnt95dr2fK7v4fZq8sdTh7/Ag==);lineShape=1;strokeColor=default;" vertex="1" parent="1">
                    <mxGeometry x="366.0197027936648" y="142.5524064702397" width="9.202267066013043" height="16.748123022620945" as="geometry"/>
                </mxCell>
                <mxCell id="16" value="" style="shape=stencil(fZbdcgIhDIWfZm8zQAg/17Z9j85U606tdqz9e/tmZ0c0uJ47xP0I5JwEBl59bp8/1kNwn6fj4W39M76ctgM/DCGM++36OJ50NPDjwKvN4bh+PR6+9i/z74/n6ctp9H74nlb4nbmSKZeJCu5vngmZ6jzzNAO7cX8FVKEsBuBKrgKg9oAE8gkCbLeUhEoEQKSUDZDLeWYRKIl8MEDRmHwfyBrBG6Amyu4+kDxxMoB3jhwgYu7TVAsVkFcWCs4CTBEoF4RctKeOxHIf8IXYpikHikAIf+MNUW94AGSSaoAoFIE3AlOyeWU+p2E5S9yfQZcQILVuQOwZdJNoS9Ls3wA5u2XZTIHECqeJ9kDpSaauRiNVcAY1QhdBzeLBli5WazpkSsBLV25uRaqWRyFawTQzRRIQYirJzq5atkBqLfouwqUxLBepthWb10vrWZY6UOAeyKCCtDV625mm9gmUC4Wc3VLJMMIE1BsA2FW9JraVlQB7n3c9oMKhCLEvIM1zBPZ25/umNQ1tVEC2G+fFCC8g398O2hNQuQlVu752DBfA+q0ptnqO5JFmeuIuo9DY7KjY71UxdJV4EntifPWorW++R/dC4t7V3DlIB5cHx2bc7eb3yvX//QNFp+bHDT/+Aw==);lineShape=1;strokeColor=default;" vertex="1" parent="1">
                    <mxGeometry x="374.3035963701593" y="133.48877700307332" width="2.1238817145979283" height="2.1205619165262264" as="geometry"/>
                </mxCell>
                <mxCell id="17" value="" style="shape=stencil(lVbLcsIwDPyaXDW2ZVv2mbb/wQyhZEoJA/T195UnE0B5CHILQRutpNXaFa7Ou/Wxrpw5X07tR/3TbC67Cl8q55rDrj41F36q8LXC1bY91e+n9uuw6X4f1yWyPH223+ULvx3OIWAuKGf+ujcWYvfirYvfN4e7eAoQg4g3YMx8fELwXsQ7iG4+PhvwVvIx4JQEOUBCmcBC9gogg5UVYISI8wBrriX2iOCArJIiAUpATBA0gAcni0gOkJS2JnBOALKDpFSdDCQ5ZyaZlKoJwchBcOO0omMYTo5Hg2keEJhAkkXHvm/TAA9WZmCSXqEULARZNOc0GqURwLOYFlFyEYIyuFL0YN9QXbjSVjlpry5QmZuM5/1Rvs/CyFKrFuwD5UmpEtioS1sagCWI2n7y8siWIk9FmcHEfnrqvzFrAZJTvNrgkyZDLCSlS8XGJKWUISmUik/KDJlUSsWIB301uhWPrfsRYnw43IYzPQoCkilyhKwB3PB4YB8jZUM5AQ09Q5OfH0qDqM84TQgwSmWwvBWbHB8NLBVlPcdS9eq6jfgg+/ySevm8DWFBP9mOtGNhPDDqT6InFcH+pMh66X3kcTw/3C4/22a/7+5O9/8PL0v8qrto4es/);lineShape=1;strokeColor=default;" vertex="1" parent="1">
                    <mxGeometry x="263.09688253634204" y="145.87670302456922" width="3.8610063386375835" height="1.8829659102009992" as="geometry"/>
                </mxCell>
                <mxCell id="18" value="" style="shape=stencil(lVbLcsIwDPyaXDWWZcv2mbb/wQxQMqXAAH39fZVmnOI4CHJzHMmWVruSG1qct8vjurHmfDkd3tZf7eqybeipsbbdb9en9iKrhp4bWmwOp/Xr6fCxX/Xfx2Vn2a3eD5/dCd+9HzqI3HlZ89PveAjmb+Olt9+1+yt7suBLewcBb9t7BBMLewtIt+0j5d/Z3oBR4okRvB2dz/a2fSIgX9ijAatckAIglhcgJKc4JHClAzGwkjKaIcWhBlYFNUWIZdIsMGgODKaMKVqgoDggRFc4JJt3puvAEEpedEFqhUagMmkBTks6SA4lM5IHiooDZkyGpDnfOekgINoypEC5ltMODG4knpjp/qCDEzLNCskyeKVwddJIwEmHtay0UwXU1a28QPSjnF8TAwFnMU8EyHOojQFY0+fAy0GfgplSgwl9upBBeLAFsLQdBaS6yQQhkoZS1cZigqiEVPdJuVMLqWvEpcMVDg+27nse9XCQoKKSdj19pAdo7KvHW3JqD0AEOwqJMsGm9ZP1e1UIq+jHQSpB6mBT+C0Zj+TgVXszTpi92lbr2SNdVZFPrQXpF3PiIadWrMpXENPmSIUnsjqoqnrJ/A8K5WpCMKRZjNMfVPftZfH/etu0u13/+Lv+P37tyVb/UqTnXw==);lineShape=1;strokeColor=default;" vertex="1" parent="1">
                    <mxGeometry x="261.2163334324764" y="140.99316767787673" width="6.497156708407849" height="2.1954828260646244" as="geometry"/>
                </mxCell>
                <mxCell id="19" value="" style="shape=stencil(rVjbbhpBDP0aXq0Zz/05Tf8jUkhBpRAR0svf11M0y9rLnrRS32DxYWwfH9uzm/Dwtnt63W7YvV3Op6/bH/vny24TPm2Y98fd9ry/yKdNeNyEh5fTefvlfHo/Pl+/vz51y/7p2+l7/4efV1xgir6j2P26PvGO2P158vkKOOyPMwDnBaCSCwDgqWUFkL9AJ8j/pagAIVFiAEhU9QkxkWsAEKnoE1Iln0EMjqIG5EIMTpC0clWAIieUdUCMFIsC1EAZZCllSpqHGqkBHnIiNgAezNwFlEisXZInBbhUHWUNyOKSBwBPoWkehLgPTgiaaUkDAJREIelaKpRB0MJrM4BAAaS186CZ5jaYuc90omL0EKlWUEtSajpoDiOq+4BATfPADF0KnrzmQQq+oibQRjHPmkAAemCpfh2DiDaBGDpAp9VLDEBA4lLQ5d2ooCR528cKRRByEDXowph4XGMtBWPvUFk4amzsGdlHcrqMMgXgjwglG/lTAE01Tj/PBkMDCYptSHcCBKpAOXJC0lXnMxVQRLGQNy41ikA5cdHnZRhlFLSnok8Q5TSkzTqSPtNmRFKTKlicUPEkcYsYIlJOs0FLlhhLzcQgPCQ00at1SZhOaHxWqotaykicbtB0K1YPeJOOx2Y+EyP7xRKTyCN/2miHMzHH/2efpJ9GmyCHxpQcoLuR9FMPClUmpzckVzybp3Y4G1PIpSazXstZShfpv4l4NcmiVwZZ8s7ZFiP7AmryrY6fp7pIY77fB4SxOE5ToYy+vJYms8LUBEtViDBqa36o4/4K48ceOAHwpMrSMczovCVurbE6PauEG7RAS9szK4n4hMpPmlLWRDQ8HKTJJR11rRAg64Fp3bJdVlDgMi71AX3fBTx4O62y9Bigh2WtyiUC2Ptxx5nUwJg0eyWRjSYB9VSb0H6pAVKQS5IpCj9t32uXJNPEeDSpNYrthjHuD/fteWwHw97BDaxnKBv7D262pqixavoY9Mb+Iw0s/Af57Ft5sflBQ40Xuwhcp/rQ1BURof9in82tGV4Hu73WfBmX4lV/dP4rFPA/v7r4C4B8uL0pedkfDtcXLfPf7ZsVeXR9KxMefwM=);lineShape=1;strokeColor=default;" vertex="1" parent="1">
                    <mxGeometry x="273.68815908283295" y="142.94735971824844" width="12.949982718749155" height="14.73579602303537" as="geometry"/>
                </mxCell>
                <mxCell id="20" value="" style="shape=stencil(rVbbbtswDP0avxKiKInSc9f9R4GmS7AsKdJsa/9+9Ax7oVyfrcDebOkciTy8aZC7l/3D826I4eV6OX/d/Tw8XveDfBpiPJz2u8vhal+D3A9y93S+7L5czt9Pj9P/88OIHL++nX+MJ7xOvEaVR1IMb9OCUE2/Fz5P8OPhdAO37dg6fCnb+BRJ1eGZqm7jc6FcHD5QCNt45R4vlMD5tVJK3p5A3LYJLc7bCyFSBRa1TFk8wTQWQKjEwbsQZqfeJzQq/oZkQcOEVh0hVxIQZSME77RGKGtTCj7MNZEiWRNxdIQm1BDBNMme0IiBrLWQpp5QMiBI7/QYSga5Z7J2Tis0SZXUO62ZEspuqwZ/Q+FZhi1C8U4ni0yEJjVvkggJkjVQ9LlkFd0QwQrSExhHehSxaxmBBKV36OPATAkEzpKvN8lUQvWgc7ksTheYS5Zq0Wer2Aq4gcPS55YaXYTbuiL7yBWLJWpMStXbZLFs6IZM7GVqjNsGk3YEMwkEwrpx8NPnRof/xFBLnq5x2EwCRq1H0NgZPjTjKsOZsh6i1kpQH1gNacNHVNWUvMtaYWPK82kLPsFUMvu9QqXNzfb97Kbi86JEagAf+raXE1Ug6Kp2Upnn0b/hpcBKWNkTTU+QESt/7QQG8VrpaS1SAH4VLzMHTYU+HRLs2B98Ev4Vbh9/Xp9Ph+Nxerze7vevVVuaXrpy/ws=);lineShape=1;strokeColor=default;" vertex="1" parent="1">
                    <mxGeometry x="384.46511610755647" y="147.90181025207465" width="10.082326739650707" height="2.6443406861439844" as="geometry"/>
                </mxCell>
                <mxCell id="21" value="" style="shape=stencil(lVbbbtswDP0avxKUKFHSc9f9R4GmS7AsKdJsa/9+9Ax5EQOfoW+2zGPezqE4ycPb/ul1N0V+u17O33e/D8/X/SRfphgPp/3ucrja0ySPkzy8nC+7b5fzz9Pz8v76NFvOTz/Ov+Y/vC+4QlpmUOSP5YCJ+e/B18X8eDjdmMdAkgf7TClu20umONoHoSrbgFQo8ACIkWraBuRCMQ4AEUp5G6C5f+6AFKgAQLmrUWZSEFJLxK5ImTICKEkaAZViAYDqk1YhDgDQKNUR0CjWbUDglQgdUZQSoIa5KGNMVUhBqy0JV9fGFBFAqekIsF422IjiPFSqCgCRREa6MhZEbVSbd1FAYWvxZbIkBGRdlVh8mRhormbfOWuEgDLV1Pl/0+oAFGEe4pi0sYkBwS2H7OhnqkY5VEpOc5UCkhD7VpvmEuhDE4rJAwJiXyYdG2ejJ4Acms2Nka4aus8tBYUxJC3EiK6N2hhSEWooaQM4alhI2IMbx9YZRA1LOjs9SA9yq6x5TNp+0dDskx7ACjANoqRtWjcPQDfEpwFz1R0gQokq3ynOCg0kmqMvqylOwcBP0gfdytYGrxQxQd7fcgAQ7iZfSnAIqO9bYqjQRHmce9JIAFele1/tsT5Dn9M3i0MDo577xFo3k7UCG/bujrZdSUA8dxeunSDWMYUx/mBSAg0zzo2MCNzv0436OBUoTDdSc+0iBdVM/Upao4H01L7e3OypSJGfW2v/a24P/zbol8PxuCzgt9/9xm1Hy7Yuj38A);lineShape=1;strokeColor=default;" vertex="1" parent="1">
                    <mxGeometry x="385.9604228179729" y="152.7843668997064" width="13.728191883694038" height="4.658204627716703" as="geometry"/>
                </mxCell>
                <mxCell id="22" value="" style="shape=stencil(7VnLUhsxEPwaX6f0HulMyH9QBQRXCFBAXn+fURwtnhHbi7mlipsx29Y8e3q0u3j2dHPxcLUL7un58f7r1c/95fPNLn7ahbC/u7l63D/Lp10838Wz6/vHqy+P99/vLg9/P1z0J/unb/c/+i/8OuBCpNY6Krjfh29KoOj/fvP5ALjd32kAawB7yhkCatKARj5CQGMFqJkYnZAoZgVoibyDgOA0IFNGTidyRQMKFXRCpBI1gKmgEwI1c0LFJgVyOkqtUUBh9eS8BXBaB/hGVZvknSMHvPaVCp+G4OHkW40qlMopbnvJLJ8SWJ+o6gLfSJ0AkjkBF4cAoikOXH7eUdVRqhX2HBNri5ip1vXnk81CyZQaMIia7p+cIGk4itqelEaPrzzv9O9Hhgwg8dEBjWIhqKIwojGeD4UyeL6OmlzqWuIP4ilVWk0jeCqIwgIlfUIlF8DzzbZBogIciIWCLmocoBTJ6+cdeWBP9qMJX55HfZ8bxWDtAQVUmLym+Ewe2M9p6no4EaqjbLguEBcAqLaEpCQCKAkZSUF7LDPCA5eFdUxRiw8FNKUQodcmSdfAE9po8qO2jMBpARQdpewoIaebFQs5D72xBqg6zyWOzK8CDNW5rROaPkG4MYDSPhphS2+KBgIjZw6TCBjU/TKRLIAHY67VhtfFJPXIKNXZ9nNtlJEP0cqLigdz81OUlh5/vYOmchUf0BCRmFRzQhktsgYwikfygFhVfq9NmXagvuUEM/qrH9JyjTZMpkUMZ1SuzmpbrpSADy3YWctL3NaIybDAFqBYtbBlUrVyW5xGAkkaKLYprJjJjHreSNzMMxulIQCzAWwUXxeNc3mjE7KV2xsNJC3K1QI2WrRMPY1I4OX33kgzdcr0BpHJvy0AU2WP+pRpRMbvAZj1kxNU5zPNiFoJoKc7QLO3yCGkZupE91mmIlInYoAu7yQCGvESD+pdAMu6uGqSbtGYx1bzOiDbawCRM4hmahiKbQFkWN6SJqvqHeSlslDvouF4TL3XAcGWho+jy9dksTObHmVgUXKTLHZw0YiTqhTd2tCiISSkoyoLMoNiFZWazAl18M7a7mPzlvCGPl1MBDwTJx0QGWaB7V2MbDcNDQdL9TnA7VNCbpSMiNYM6qiHyAx1vG+/bF9HNBkR4OOG6x/g44brv7jhSkNXHF3hIgEnTjsjEfElsQAMU25cQ3eA0QH4orubpAEbV+n9BN2kxVNEpZHHMFgAeMJ1ojH7d8OZZrvF5QrniQDMOi2AjDvIvHAQQABapt8k8UkAP2493mhSJ5pyitP9/pBPCWsfoiclrr800SZtlMZ73uNsAeTDy2uj6/3t7eGt0/H/7Wsm+erwiiqe/wE=);lineShape=1;strokeColor=default;" vertex="1" parent="1">
                    <mxGeometry x="400.1559959983342" y="137.05753031496556" width="19.682506926132685" height="21.4993599489053" as="geometry"/>
                </mxCell>
                <mxCell id="23" value="" style="shape=stencil(rVZdb9swDPw1fiUoSjKp5677HwWaLsGypEjTffz7MfPslXJ9w4C9OQ5PJnnHo4Z897J/eN4Nwi/Xy/nz7tvh8bof8odB5HDa7y6Hqz8N+X7Id0/ny+7T5fx6epx+Pz/cIm9PX85fbyd8n3BGlW8g4R/Ti2yU7Nebj1P88XB6E58aaY6AQqVsA0qiIgEgDAFVqKYASELC24CxkUVAJtbteGt9RkwMzm9C2mJCpKBFrfb5KPEI4r3jGs+vJKCA1miMH5BKFQASLxUuLRrJUE6NxAKgKDWUk1ItAVCVFNDcCrUaAGOlhACpp8GJzw3wbJRjDcqQCKvE3RecOcC0uTDHCGBYtPE8XEuX0jxP7wK0zQksPDDk4QaIKcmils2UInHJyAQWnWKXGq65rrRHGZ1vvfSYBMS7LsbWxSuQhQvPYodciUh3SqUbz4X2zdmJynbDgLPTqMUKcsaO4ZRGzkqhjL5gcwsX3RVS5HnuYd0oyJzklklaZG308UPD1qjGlHw6f/ft/wA0kfEKALpUx95X1X0VFF3cseIytEwVFO28Sjc7iRjMvyun8zCXI5qG5OPcbU/G603JorxdXQraWklTn5ECg8mkcdx8ABnEy6qnBleV+2GUhRsU4oB7+3KSCzD51ep0YSPKmHK313ie1vcZI4n9rBn6qVcXzy940ZbVJhfoRiPlzq5dD8iv//EG+fd4f/hzXX06HI/Tbfft//311l9NV+N8/xM=);lineShape=1;strokeColor=default;" vertex="1" parent="1">
                    <mxGeometry x="424.8238233857858" y="144.2388547971915" width="10.686607180977758" height="3.206874829410615" as="geometry"/>
                </mxCell>
                <mxCell id="24" value="" style="shape=stencil(nVbRchoxDPyae9VYsi3bz2n6H5kJKUwpZAhpm7+PrtejWAdL0rfj8J5Xq13ZQ7x7WT88rwYJL8fD/vvq1+bxuB7il0Fks1uvDpujPQ3xfoh3T/vD6tth/7p7nH4/P4wrx6cf+5/jF35POBXKdURJeJveFKrpz4uv0/rtZufW5249V2oIkIi1A0SmxNcBhSmUDpAicbwOqDwTmAE5U24AUOcSZ4A2KuE6oDVftH2iZQzoVW1CAdTQMtXQAxI1hTWo9IBCSYCslUovq5FksIMWkuYBDchqqscFAHkpJYqu6Ar7EDOJAygV4CVpFMTL+tddlwFKKfYAsyNQyeKifdG1QJWikPZ5qJm4ApWCd2sVmLjMFJ1bLXGAklq+uAcEaoBSSVTrYgcgq5XoZB1rAI1rkTQvVAJFm3O0LvoAABwCBWcmazXiVOYaz80EItcWjTC7KpJJSNzYOJV1bVaK87dFDsyZ3Cj2gDMdLtvPzoPFFsivsfhxPAoHIhTDHPoTIENKFtLqGmHTFVD6NIBtbvSpLkoNUGIl6SOkee7l5Vb70ZeFKhAp+PU2FhQQWpj7xqnLpD3/G8c6f+7aID46GZ6fee7OqVpikJtG0udMoDacqPQj2IKKyFvKevYBGtqam9itR362Y83xuRFJmb34MT6peT643pzm2fwxPfMiLbhdyv7MxG74nzsqXm8P/y7ET5vtdrpPn//vL9D2arp8x/t3);lineShape=1;strokeColor=default;" vertex="1" parent="1">
                    <mxGeometry x="443.3076254267877" y="140.73075929755788" width="3.2916467226207464" height="12.71403111643942" as="geometry"/>
                </mxCell>
            </root>
        </mxGraphModel>
    </diagram>
</mxfile>